<?xml version="1.0" standalone="no"?>
<!DOCTYPE svg PUBLIC "-//W3C//DTD SVG 20010904//EN"
 "http://www.w3.org/TR/2001/REC-SVG-20010904/DTD/svg10.dtd">
<svg version="1.0" xmlns="http://www.w3.org/2000/svg"
 width="496.000000pt" height="454.000000pt" viewBox="0 0 496.000000 454.000000"
 preserveAspectRatio="xMidYMid meet">
<metadata>
Created by potrace 1.10, written by Peter Selinger 2001-2011
</metadata>
<g transform="translate(0.000000,454.000000) scale(0.100000,-0.100000)"
fill="#000000" stroke="none">
<path d="M2220 3951 c-129 -28 -219 -153 -206 -288 9 -104 64 -186 151 -224
142 -63 292 -11 363 125 66 129 9 299 -122 364 -50 25 -131 35 -186 23z"/>
<path d="M1610 3572 c-46 -23 -75 -79 -65 -129 7 -40 39 -74 128 -138 84 -60
198 -222 197 -278 0 -7 -29 -25 -63 -40 -34 -15 -73 -36 -86 -46 l-23 -18 33
-31 c83 -78 192 -115 446 -152 75 -11 149 -22 163 -25 14 -2 52 -8 85 -14 59
-9 198 -68 261 -110 l32 -22 -26 68 c-22 59 -26 85 -26 188 -1 151 20 223 101
345 45 68 92 113 183 177 73 51 90 93 65 159 -14 36 -26 49 -61 66 -38 19 -48
20 -83 9 -22 -6 -49 -23 -58 -37 -134 -192 -293 -288 -499 -301 -206 -14 -414
90 -534 267 -30 44 -47 59 -78 68 -50 15 -50 15 -92 -6z"/>
<path d="M1278 3384 c-32 -17 -58 -62 -58 -100 0 -14 17 -68 37 -118 32 -81
37 -103 41 -201 7 -169 -34 -298 -132 -417 -100 -123 -248 -199 -421 -217 -73
-8 -82 -11 -112 -45 -26 -28 -33 -44 -33 -77 0 -47 27 -92 70 -114 42 -22 58
-19 144 21 93 42 186 64 281 64 118 0 114 4 108 -111 -6 -94 -5 -99 14 -99 11
0 53 16 93 36 92 46 161 114 315 309 146 185 233 272 318 316 36 18 64 36 61
40 -2 3 -23 9 -47 12 -110 15 -268 105 -344 195 -88 104 -136 220 -148 362 -4
41 -14 87 -22 101 -32 55 -108 75 -165 43z"/>
<path d="M3178 3382 c-38 -23 -54 -64 -62 -154 -7 -76 -28 -153 -61 -219 -27
-54 -79 -129 -90 -129 -5 0 -43 23 -83 50 -41 28 -77 50 -82 50 -11 0 -19 -34
-26 -110 -8 -89 20 -203 101 -405 116 -290 115 -290 122 -413 l6 -112 66 63
c121 115 223 162 382 174 115 8 205 -9 311 -59 104 -49 139 -47 187 8 75 85
14 204 -106 204 -50 0 -145 23 -207 50 -126 54 -254 184 -308 312 -68 160 -68
316 -2 475 49 119 44 175 -18 213 -40 24 -94 25 -130 2z"/>
<path d="M805 3123 c-83 -19 -117 -37 -163 -87 -193 -212 22 -535 292 -439
175 63 232 293 106 435 -55 63 -168 107 -235 91z"/>
<path d="M3687 3119 c-121 -29 -203 -125 -215 -251 -6 -74 16 -136 72 -196
131 -143 346 -115 440 58 36 67 40 161 9 230 -51 116 -189 187 -306 159z"/>
<path d="M1543 2055 c-52 -65 -153 -133 -253 -171 -66 -25 -89 -28 -195 -28
-126 -1 -188 12 -285 59 -67 33 -95 37 -135 21 -43 -18 -75 -69 -75 -120 0
-31 7 -45 37 -76 35 -34 44 -37 109 -43 188 -18 350 -114 460 -272 109 -159
125 -407 38 -591 -27 -58 -30 -103 -10 -143 44 -84 170 -81 215 6 6 12 11 41
11 65 1 111 73 310 134 367 l25 24 48 -54 c215 -244 468 -381 783 -424 143
-20 180 -14 180 30 0 13 -13 73 -30 132 -16 58 -30 110 -30 114 0 4 36 19 81
34 90 30 218 98 294 155 249 188 415 499 432 813 7 127 9 126 -103 72 -91 -44
-164 -114 -303 -295 -151 -195 -245 -285 -351 -336 -107 -52 -131 -61 -204
-74 -353 -62 -684 140 -803 490 -21 62 -26 95 -27 187 -1 62 -1 113 -1 112 0
0 -19 -24 -42 -54z"/>
<path d="M1955 2096 c-29 -13 -55 -51 -55 -82 0 -45 52 -94 100 -94 33 0 81
51 82 87 1 39 -25 81 -58 93 -31 12 -32 12 -69 -4z"/>
<path d="M2263 2103 c-59 -12 -82 -100 -39 -150 53 -61 156 -21 156 62 0 59
-55 101 -117 88z"/>
<path d="M2563 2103 c-58 -11 -85 -109 -40 -151 68 -63 170 -10 153 81 -10 53
-54 80 -113 70z"/>
<path d="M760 1441 c-115 -35 -190 -140 -191 -266 -1 -82 24 -136 90 -198 49
-46 123 -77 181 -77 58 0 132 31 181 77 183 171 63 476 -185 472 -28 0 -62 -4
-76 -8z"/>
</g>
</svg>
